<?xml version="1.0" standalone="no"?>
<!DOCTYPE svg PUBLIC "-//W3C//DTD SVG 20010904//EN"
 "http://www.w3.org/TR/2001/REC-SVG-20010904/DTD/svg10.dtd">
<svg version="1.0" xmlns="http://www.w3.org/2000/svg"
 width="512.000000pt" height="512.000000pt" viewBox="0 0 512.000000 512.000000"
 preserveAspectRatio="xMidYMid meet">
<metadata>
Created by potrace 1.14, written by Peter Selinger 2001-2017
</metadata>
<g transform="translate(0.000000,512.000000) scale(0.100000,-0.100000)"
fill="#000000" stroke="none">
<path d="M4103 4128 c-16 -18 -33 -42 -37 -53 -4 -11 -10 -15 -14 -10 -19 26
-85 75 -101 75 -46 0 -140 -301 -141 -446 0 -56 -6 -73 -71 -200 -39 -76 -81
-153 -93 -169 -70 -91 -169 -158 -291 -194 -112 -34 -182 -34 -450 -2 -158 19
-247 25 -365 25 -137 0 -178 -5 -290 -34 -216 -57 -390 -15 -521 126 -25 27
-74 80 -110 117 -86 92 -196 174 -304 226 -185 90 -423 119 -620 76 -11 -3
-31 -7 -45 -9 -14 -2 -47 -12 -75 -21 -241 -82 -416 -289 -480 -569 -19 -84
-26 -168 -16 -185 5 -7 28 -17 52 -22 49 -9 344 -5 399 6 115 22 223 52 313
87 244 96 327 111 469 81 96 -19 140 -41 248 -121 52 -39 154 -102 227 -139
l134 -69 4 -91 c10 -222 100 -464 198 -528 25 -16 28 -22 22 -54 -7 -35 -43
-113 -67 -141 -7 -9 -30 -29 -51 -45 -50 -37 -61 -65 -45 -118 6 -23 12 -44
13 -47 1 -3 9 -31 19 -62 9 -31 19 -68 22 -82 11 -64 74 -297 93 -346 33 -86
79 -159 113 -180 26 -16 51 -19 159 -18 112 0 130 3 145 19 11 12 21 16 28 10
32 -27 242 -29 267 -4 22 22 13 119 -14 166 -24 40 -90 87 -122 87 -16 0 -21
20 -35 150 -7 58 -13 114 -15 125 -15 111 -19 164 -16 197 1 21 51 47 146 78
110 35 215 80 273 117 29 18 53 33 55 33 1 0 2 -132 2 -293 1 -403 12 -569 45
-644 26 -59 58 -73 174 -73 87 0 97 2 125 26 61 51 58 124 -8 184 -31 29 -38
42 -36 65 2 17 6 77 10 135 3 58 8 119 10 135 2 17 7 53 10 80 7 59 35 198 41
204 2 2 4 0 5 -5 6 -47 13 -209 24 -536 2 -70 9 -156 16 -192 10 -57 14 -66
41 -79 45 -22 185 -18 221 6 49 32 64 70 59 145 -1 13 -24 44 -53 72 -48 46
-51 51 -45 87 3 21 8 64 12 96 3 32 7 66 9 75 1 9 6 46 10 82 4 36 9 72 10 80
1 8 6 40 11 70 4 30 8 57 9 60 1 3 5 21 9 40 25 104 196 327 301 392 70 43
174 153 212 223 l31 59 -21 43 -21 43 38 34 37 35 -22 43 c-32 63 -47 126 -43
191 6 115 45 153 209 202 259 79 368 134 416 212 13 20 36 48 51 62 35 32 43
72 23 111 -21 41 -41 49 -116 48 -52 -2 -78 4 -138 30 -78 34 -112 59 -221
161 -37 35 -93 75 -132 94 -60 29 -68 36 -73 67 -9 50 -44 159 -62 194 -24 47
-109 126 -136 126 -13 0 -36 -14 -54 -32z m-1723 -2495 c12 -54 40 -163 62
-242 21 -79 38 -145 36 -146 -2 -2 -27 2 -55 8 -43 9 -53 15 -54 31 0 12 -2
30 -4 41 -3 11 -7 45 -10 75 -4 30 -9 66 -11 80 -8 42 -14 218 -8 235 12 31
22 13 44 -82z"/>
</g>
</svg>
